<svg width="34" height="34" viewBox="0 0 34 34" fill="none" xmlns="http://www.w3.org/2000/svg">
<path d="M31.1667 23.9698V28.2198C31.1683 28.6144 31.0874 29.0049 30.9294 29.3664C30.7713 29.7279 30.5395 30.0524 30.2488 30.3191C29.958 30.5858 29.6148 30.7889 29.241 30.9153C28.8673 31.0417 28.4713 31.0887 28.0783 31.0531C23.719 30.5795 19.5316 29.0899 15.8525 26.704C12.4296 24.5289 9.52755 21.6269 7.35249 18.204C4.95829 14.5082 3.46833 10.3004 3.00332 5.92148C2.96792 5.52972 3.01448 5.13489 3.14003 4.76211C3.26558 4.38934 3.46738 4.04679 3.73257 3.75628C3.99776 3.46576 4.32054 3.23365 4.68036 3.07472C5.04017 2.91579 5.42914 2.83352 5.82249 2.83315H10.0725C10.76 2.82638 11.4265 3.06984 11.9478 3.51815C12.4691 3.96646 12.8096 4.58903 12.9058 5.26981C13.0852 6.62991 13.4179 7.96534 13.8975 9.25065C14.0881 9.7577 14.1293 10.3088 14.0164 10.8386C13.9034 11.3683 13.6409 11.8546 13.26 12.2398L11.4608 14.039C13.4775 17.5857 16.4141 20.5223 19.9608 22.539L21.76 20.7398C22.1452 20.3589 22.6315 20.0964 23.1612 19.9834C23.691 19.8705 24.2421 19.9117 24.7492 20.1023C26.0345 20.5819 27.3699 20.9146 28.73 21.094C29.4182 21.1911 30.0466 21.5377 30.4959 22.0679C30.9452 22.5982 31.1839 23.275 31.1667 23.9698Z" stroke="white" stroke-width="2" stroke-linecap="round" stroke-linejoin="round"/>
</svg>
