<svg width="35" height="35" viewBox="0 0 35 35" fill="none" xmlns="http://www.w3.org/2000/svg">
<path d="M33.5417 4.37502C32.1452 5.36009 30.5989 6.11351 28.9625 6.60627C28.0842 5.59639 26.917 4.88061 25.6186 4.55574C24.3203 4.23087 22.9535 4.31259 21.7031 4.78984C20.4527 5.26709 19.379 6.11685 18.6273 7.22419C17.8756 8.33152 17.4821 9.64301 17.5 10.9813V12.4396C14.9372 12.5061 12.3977 11.9377 10.1078 10.785C7.81779 9.63242 5.84842 7.93136 4.37504 5.83335C4.37504 5.83335 -1.45829 18.9583 11.6667 24.7917C8.66331 26.8304 5.08548 27.8526 1.45837 27.7083C14.5834 35 30.625 27.7083 30.625 10.9375C30.6237 10.5313 30.5846 10.1261 30.5084 9.7271C31.9968 8.25928 33.0471 6.40606 33.5417 4.37502Z" stroke="white" stroke-width="2" stroke-linecap="round" stroke-linejoin="round"/>
</svg>
